<svg width="90" height="90" viewBox="0 0 90 90" fill="none" xmlns="http://www.w3.org/2000/svg">
<rect width="90" height="90" rx="45" fill="white"/>
<path d="M60.1875 53.7001L25.2961 39.7431C26.4219 37.7587 27.8041 35.9313 29.4071 34.3079C29.6664 34.0449 29.9975 33.8644 30.359 33.7889C30.7205 33.7135 31.0963 33.7464 31.4391 33.8837L37.3875 36.2931C37.8463 36.4762 38.3368 36.5669 38.8307 36.5599C39.3246 36.5529 39.8123 36.4484 40.2657 36.2524C40.7192 36.0564 41.1294 35.7728 41.4729 35.4177C41.8164 35.0627 42.0863 34.6433 42.2672 34.1837L47.1891 21.7384C48.1617 19.3946 50.8149 18.1454 53.1961 19.036C53.7864 19.2556 54.3265 19.5918 54.784 20.0247C55.2414 20.4576 55.607 20.9783 55.8588 21.5556C56.1106 22.1329 56.2435 22.755 56.2495 23.3848C56.2555 24.0146 56.1345 24.6392 55.8938 25.2212L50.8899 37.6665C50.5242 38.5891 50.5392 39.619 50.9315 40.5306C51.3238 41.4422 52.0615 42.1611 52.9828 42.5298L58.8281 44.836C59.1749 44.9763 59.4718 45.2171 59.6806 45.5274C59.8894 45.8377 60.0007 46.2034 60 46.5774V50.6251C59.998 51.653 60.0606 52.68 60.1875 53.7001Z" fill="#FFD386"/>
<path d="M70.1953 65.815C64.9079 63.2369 61.875 57.7103 61.875 50.6275V46.5775C61.877 45.8261 61.6524 45.0916 61.2305 44.4699C60.8087 43.8481 60.2091 43.3681 59.5102 43.0923L53.6719 40.7814C53.2126 40.5976 52.8445 40.2398 52.6478 39.7859C52.4511 39.332 52.4418 38.8187 52.6219 38.3579L57.6188 25.9361C57.9579 25.1208 58.129 24.2454 58.1218 23.3624C58.1147 22.4794 57.9294 21.607 57.577 20.7973C57.2247 19.9876 56.7126 19.2574 56.0714 18.6503C55.4302 18.0432 54.6731 17.5717 53.8454 17.2642C52.2332 16.6735 50.4542 16.7348 48.8865 17.435C47.3188 18.1353 46.086 19.4193 45.45 21.0142C45.4491 21.0235 45.4491 21.033 45.45 21.0423L40.5235 33.5157C40.3403 33.9772 39.9815 34.3472 39.5258 34.5444C39.0702 34.7417 38.5549 34.7502 38.093 34.5681L32.1352 32.1423C31.4483 31.864 30.6939 31.7969 29.9687 31.9497C29.2435 32.1025 28.5803 32.4683 28.0641 33.0001C23.1282 38.0743 20.625 44.004 20.625 50.6251C20.6121 57.4007 23.2324 63.9162 27.9329 68.7962C28.109 68.9803 28.3207 69.1266 28.5553 69.2262C28.7898 69.3257 29.0422 69.3764 29.2969 69.3751H69.375C69.7988 69.3747 70.21 69.2308 70.5415 68.9667C70.873 68.7027 71.1052 68.3341 71.2004 67.9211C71.2955 67.5082 71.248 67.0751 71.0655 66.6927C70.8829 66.3102 70.5762 66.0008 70.1953 65.815ZM30.736 35.6251L36.6915 38.0392C37.3789 38.3142 38.1139 38.4508 38.8542 38.4411C39.5946 38.4315 40.3257 38.2757 41.0058 37.9829C41.6858 37.69 42.3013 37.2657 42.817 36.7345C43.3327 36.2032 43.7385 35.5753 44.011 34.8868L48.9329 22.465C49.5329 21.0329 51.1524 20.2923 52.5493 20.8243C52.9054 20.9565 53.2311 21.1594 53.5066 21.4208C53.7822 21.6822 54.002 21.9968 54.1526 22.3455C54.3033 22.6942 54.3818 23.0697 54.3834 23.4496C54.385 23.8294 54.3096 24.2057 54.1618 24.5556L49.1461 36.9751C48.597 38.3605 48.6201 39.9071 49.2102 41.2755C49.8004 42.6438 50.9094 43.7221 52.2938 44.2736L58.125 46.5775V50.6251C58.125 50.7025 58.125 50.7798 58.125 50.8595L28.0711 38.8384C28.8701 37.6963 29.7614 36.6216 30.736 35.6251ZM41.986 65.6251C39.1944 62.9474 37.2168 59.5349 36.2813 55.7814C36.1509 55.3066 35.8391 54.9022 35.4131 54.6555C34.9871 54.4087 34.4811 54.3394 34.0044 54.4625C33.5278 54.5855 33.1186 54.8912 32.8654 55.3134C32.6121 55.7355 32.535 56.2404 32.6508 56.7189C33.4686 59.9479 34.9325 62.9777 36.954 65.6251H30.1032C26.4052 61.5052 24.3645 56.1613 24.375 50.6251C24.3521 47.6918 24.9704 44.789 26.1868 42.1197L58.4836 55.0384C59.1868 59.2572 60.9586 62.8853 63.6141 65.6228L41.986 65.6251Z" fill="black"/>
</svg>
