<svg width="192" height="192" viewBox="0 0 192 192" fill="none" xmlns="http://www.w3.org/2000/svg">
<rect width="192" height="192" rx="96" fill="white"/>
<path d="M128.273 114.487L54.1292 84.8288C56.5215 80.6121 59.4586 76.7288 62.8649 73.2791C63.4159 72.7203 64.1196 72.3366 64.8878 72.1763C65.656 72.0159 66.4544 72.0859 67.1829 72.3776L79.8234 77.4975C80.7983 77.8867 81.8405 78.0794 82.8901 78.0646C83.9397 78.0498 84.976 77.8277 85.9395 77.4112C86.9031 76.9947 87.7748 76.3919 88.5047 75.6375C89.2346 74.8831 89.8082 73.9919 90.1927 73.0151L100.652 46.5688C102.719 41.5884 108.356 38.9338 113.417 40.8264C114.671 41.2929 115.819 42.0074 116.791 42.9273C117.763 43.8472 118.54 44.9536 119.075 46.1804C119.61 47.4072 119.892 48.7292 119.905 50.0675C119.918 51.4059 119.661 52.733 119.149 53.9698L108.516 80.4161C107.739 82.3766 107.771 84.5652 108.604 86.5023C109.438 88.4394 111.005 89.967 112.963 90.7505L125.385 95.6513C126.122 95.9494 126.752 96.461 127.196 97.1205C127.64 97.7799 127.876 98.557 127.875 99.3518V107.953C127.871 110.137 128.004 112.32 128.273 114.487Z" fill="#FFD386"/>
<path d="M149.54 140.232C138.304 134.753 131.859 123.009 131.859 107.958V99.3518C131.864 97.7552 131.386 96.1944 130.49 94.8732C129.593 93.552 128.319 92.5318 126.834 91.9459L114.428 87.0351C113.452 86.6447 112.67 85.8844 112.252 84.9198C111.834 83.9552 111.814 82.8645 112.197 81.8853L122.815 55.4888C123.536 53.7563 123.899 51.8962 123.884 50.0199C123.869 48.1435 123.475 46.2896 122.726 44.569C121.978 42.8484 120.889 41.2966 119.527 40.0066C118.164 38.7165 116.555 37.7147 114.796 37.0611C111.371 35.8058 107.59 35.9361 104.259 37.4241C100.927 38.9122 98.3077 41.6407 96.9563 45.0299C96.9544 45.0497 96.9544 45.0697 96.9563 45.0896L86.4874 71.5957C86.098 72.5763 85.3356 73.3624 84.3674 73.7817C83.3992 74.2009 82.3042 74.219 81.3227 73.8319L68.6623 68.6771C67.2026 68.0856 65.5996 67.9431 64.0585 68.2679C62.5174 68.5926 61.1082 69.3698 60.0112 70.5C49.5224 81.2827 44.2032 93.8833 44.2032 107.953C44.1757 122.351 49.7439 136.197 59.7323 146.567C60.1066 146.958 60.5566 147.269 61.055 147.48C61.5533 147.692 62.0896 147.8 62.631 147.797H147.797C148.698 147.796 149.571 147.49 150.276 146.929C150.98 146.368 151.474 145.585 151.676 144.707C151.878 143.83 151.777 142.909 151.389 142.097C151.001 141.284 150.35 140.626 149.54 140.232ZM65.689 76.0781L78.3443 81.208C79.8052 81.7924 81.367 82.0827 82.9402 82.0621C84.5135 82.0416 86.0672 81.7107 87.5123 81.0883C88.9573 80.4659 90.2653 79.5644 91.3612 78.4354C92.4571 77.3064 93.3193 75.9722 93.8983 74.5093L104.357 48.1128C105.632 45.0697 109.074 43.4959 112.042 44.6264C112.799 44.9072 113.491 45.3384 114.077 45.8939C114.662 46.4495 115.129 47.1179 115.449 47.8588C115.77 48.5998 115.936 49.3979 115.94 50.2051C115.943 51.0123 115.783 51.8118 115.469 52.5553L104.811 78.9469C103.644 81.8907 103.693 85.1773 104.947 88.0851C106.201 90.9929 108.557 93.2842 111.499 94.456L123.891 99.3518V107.953C123.891 108.117 123.891 108.282 123.891 108.451L60.0262 82.9063C61.7241 80.4794 63.618 78.1957 65.689 76.0781ZM89.5952 139.828C83.6631 134.138 79.4606 126.886 77.4728 118.91C77.1957 117.901 76.533 117.042 75.6278 116.518C74.7225 115.993 73.6473 115.846 72.6344 116.107C71.6215 116.369 70.7521 117.018 70.2139 117.916C69.6757 118.813 69.512 119.886 69.758 120.902C71.4958 127.764 74.6065 134.202 78.9021 139.828H64.3442C56.486 131.073 52.1495 119.718 52.172 107.953C52.1232 101.72 53.4372 95.5513 56.0219 89.879L124.653 117.331C126.147 126.296 129.912 134.006 135.555 139.823L89.5952 139.828Z" fill="black"/>
</svg>
